<svg width="64" height="64" viewBox="0 0 64 64" xmlns="http://www.w3.org/2000/svg">
  <defs>
    <linearGradient id="bg-gradient" x1="0%" y1="0%" x2="100%" y2="100%">
      <stop offset="0%" style="stop-color:#5865f2;stop-opacity:1" />
      <stop offset="100%" style="stop-color:#7289da;stop-opacity:1" />
    </linearGradient>
    <linearGradient id="remote-gradient" x1="0%" y1="0%" x2="0%" y2="100%">
      <stop offset="0%" style="stop-color:#ffffff;stop-opacity:0.95" />
      <stop offset="100%" style="stop-color:#f0f0f0;stop-opacity:0.95" />
    </linearGradient>
  </defs>
  
  <!-- Background -->
  <circle cx="32" cy="32" r="30" fill="url(#bg-gradient)" stroke="#4752c4" stroke-width="2"/>
  
  <!-- Remote control body -->
  <rect x="20" y="16" width="24" height="32" rx="4" fill="url(#remote-gradient)" stroke="#d0d0d0" stroke-width="1"/>
  
  <!-- Screen area -->
  <rect x="24" y="20" width="16" height="8" rx="1" fill="#2c2f33" opacity="0.8"/>
  <rect x="25" y="21" width="14" height="6" rx="0.5" fill="#36393f"/>
  
  <!-- Control pad -->
  <circle cx="32" cy="34" r="3" fill="#5865f2" opacity="0.8"/>
  <circle cx="28" cy="38" r="2" fill="#5865f2" opacity="0.7"/>
  <circle cx="36" cy="38" r="2" fill="#5865f2" opacity="0.7"/>
  <circle cx="32" cy="42" r="2" fill="#5865f2" opacity="0.7"/>
  
  <!-- Side buttons -->
  <rect x="18" y="24" width="2" height="4" rx="1" fill="#7289da"/>
  <rect x="44" y="24" width="2" height="4" rx="1" fill="#7289da"/>
  
  <!-- Status indicators -->
  <circle cx="48" cy="16" r="4" fill="#00d924" opacity="0.8"/>
  <circle cx="48" cy="16" r="3" fill="#00ff2a"/>
  <circle cx="48" cy="16" r="1.5" fill="white" opacity="0.6"/>
  
  <!-- Connection waves -->
  <path d="M 50 12 Q 54 14 50 16 Q 54 18 50 20" stroke="#00ff2a" stroke-width="1.5" fill="none" opacity="0.6"/>
  <path d="M 52 11 Q 58 14 52 17 Q 58 20 52 23" stroke="#00ff2a" stroke-width="1" fill="none" opacity="0.4"/>
</svg>